<svg xmlns="http://www.w3.org/2000/svg" viewBox="0 0 520 720" role="img" aria-label="Hookah">
  <defs>
    <linearGradient id="metal" x1="0" x2="1" y1="0" y2="1">
      <stop offset="0" stop-color="#f7efe0"/>
      <stop offset="0.42" stop-color="#b87743"/>
      <stop offset="1" stop-color="#08233d"/>
    </linearGradient>
    <linearGradient id="glass" x1="0" x2="1" y1="0" y2="1">
      <stop offset="0" stop-color="#f9f3e9"/>
      <stop offset="0.55" stop-color="#d49b6e"/>
      <stop offset="1" stop-color="#8e421f"/>
    </linearGradient>
    <filter id="shadow" x="-30%" y="-30%" width="160%" height="160%">
      <feDropShadow dx="0" dy="28" stdDeviation="24" flood-color="#08233d" flood-opacity=".22"/>
    </filter>
  </defs>
  <g fill="none" fill-rule="evenodd" filter="url(#shadow)" stroke-linecap="round" stroke-linejoin="round">
    <path d="M260 91v322" stroke="#08233d" stroke-width="22"/>
    <path d="M204 103h112M214 71h92" stroke="#9b4c24" stroke-width="18"/>
    <path d="M224 126h72l-18 62h-36z" fill="url(#metal)" stroke="#08233d" stroke-width="8"/>
    <path d="M173 404c18-46 156-46 174 0l-34 167c-8 39-98 39-106 0z" fill="url(#glass)" stroke="#08233d" stroke-width="12"/>
    <path d="M205 440c28 20 82 20 110 0M216 512c24 16 64 16 88 0" stroke="#f9f3e9" stroke-width="10" opacity=".75"/>
    <path d="M176 600h168M210 648h100M260 584v64" stroke="#08233d" stroke-width="18"/>
    <path d="M284 263c74 0 133 33 133 84 0 45-46 75-91 75" stroke="#08233d" stroke-width="20"/>
    <path d="M413 345c36-17 70-8 89 20" stroke="#9b4c24" stroke-width="17"/>
    <path d="M468 390c-16 0-29-13-29-29s13-29 29-29 29 13 29 29-13 29-29 29z" fill="#f7efe0" stroke="#08233d" stroke-width="10"/>
  </g>
</svg>
